# xmcd
#
# Track frame offsets: 
#        180
#        12871
#        25396
#        37701
#        50081
#        61036
#        75798
#        87292
#        98404
#        109714
#        123502
#        136256
#        145450
#        158504
#        170880
#        184108
#
# Disc length: 2598 seconds
#
# Revision: 0
# Processed by: cddbd v1.5.2PL0 Copyright (c) Steve Scherf et al.
# Submitted via: ExactAudioCopy v1.3
#
DISCID=c00a2410
DTITLE=Div. - Country Rare Roots
DYEAR=1900
DGENRE=Country
TTITLE0=The Pickard Family - Get Away From That Window
TTITLE1=Ernest Phipps - A Little Talk With Jesus
TTITLE2=Renfro Valley Boys - Who's Gonna Shoe Your Pretty Little Feet
TTITLE3=Milton Brown - Mama Don't Allow It
TTITLE4=Modern Mountaineers - Everybody's Rockin'
TTITLE5=Bob Wills - San Antonio Rose
TTITLE6=Bob Wills - New San Antonio Rose
TTITLE7=Dickie MC Bride - TulsaTwist
TTITLE8=Roy Acuff - Fireball Mail
TTITLE9=Bill Monroe - Blue Moon Of Kentucky
TTITLE10=Jimmy Wyble - Huntin'Business All The Time
TTITLE11=Bob Wills - Little Liza Jane
TTITLE12=Hank Penny - Penny Blows His Top
TTITLE13=Cliffie Stone - Silver Stars
TTITLE14=Paul Howard - Cotton Pickery's Special
TTITLE15=Tennesee Ernie Ford - Tennessee Border
EXTD=
EXTT0=
EXTT1=
EXTT2=
EXTT3=
EXTT4=
EXTT5=
EXTT6=
EXTT7=
EXTT8=
EXTT9=
EXTT10=
EXTT11=
EXTT12=
EXTT13=
EXTT14=
EXTT15=
PLAYORDER=
